<svg width="614" height="794" viewBox="0 0 614 794" fill="none" xmlns="http://www.w3.org/2000/svg">
<g opacity="0.5">
<path d="M694.403 78.0064C686.255 81.0232 677.763 83.0196 669.123 83.9497C663.683 84.5887 658.275 84.9083 652.836 85.0041C652.58 90.3083 652.164 95.6125 651.524 100.981C650.612 109.524 648.996 117.977 646.692 126.255C646.516 126.878 646.14 127.427 645.624 127.817C645.107 128.208 644.476 128.419 643.828 128.419C643.179 128.419 642.549 128.208 642.032 127.817C641.515 127.427 641.14 126.878 640.964 126.255C638.663 117.977 637.047 109.523 636.132 100.981C635.492 95.5806 635.076 90.1805 634.788 84.7485C629.38 84.4929 623.972 84.0775 618.532 83.4384C609.984 82.53 601.528 80.9053 593.253 78.5815C592.784 78.4244 592.358 78.1609 592.008 77.8116C591.658 77.4623 591.394 77.0368 591.237 76.5685C591.019 75.8144 591.109 75.005 591.487 74.3167C591.865 73.6285 592.499 73.117 593.253 72.8939C601.528 70.5686 609.984 68.9439 618.532 68.0371C623.844 67.43 629.156 67.0146 634.532 66.727C634.56 61.2991 634.923 55.8781 635.62 50.4949C636.516 41.8612 638.516 33.3779 641.572 25.252C641.693 24.9315 641.882 24.6405 642.125 24.3981C642.367 24.1558 642.659 23.9676 642.98 23.8461C643.591 23.6153 644.269 23.6333 644.867 23.8962C645.466 24.1591 645.937 24.6459 646.18 25.252C649.236 33.3779 651.236 41.8612 652.132 50.4949C652.757 55.7988 653.109 61.1313 653.188 66.4714C658.537 66.5054 663.88 66.8576 669.187 67.5258C677.832 68.4501 686.325 70.4576 694.467 73.501C694.781 73.6259 695.067 73.8117 695.308 74.0475C695.55 74.2833 695.743 74.5646 695.875 74.875C696.075 75.486 696.034 76.1502 695.76 76.7321C695.487 77.3139 695.001 77.7697 694.403 78.0064Z" fill="#DB9A00"/>
<path d="M103.278 597.76C95.1284 600.808 86.6225 602.805 77.9665 603.703C72.5696 604.337 67.1442 604.699 61.7108 604.789C61.4228 610.094 61.0068 615.398 60.3988 620.766C59.4907 629.302 57.8636 637.746 55.5349 646.009C55.3996 646.489 55.1432 646.926 54.7902 647.278C54.4372 647.631 53.9995 647.887 53.519 648.022C52.7713 648.246 51.9653 648.164 51.2778 647.795C50.5903 647.426 50.0775 646.8 49.8518 646.054V646.009C47.5247 637.746 45.8976 629.302 44.9879 620.766C44.3799 615.366 43.9319 609.934 43.6759 604.534C38.2681 604.278 32.8282 603.831 27.4203 603.224C18.8723 602.315 10.416 600.691 2.14073 598.367C1.67175 598.21 1.24562 597.946 0.895833 597.597C0.546044 597.248 0.282113 596.822 0.124772 596.354C-0.10012 595.607 -0.018789 594.802 0.350875 594.115C0.720539 593.429 1.34825 592.917 2.09594 592.692H2.14073C10.4156 590.367 18.8721 588.742 27.4203 587.835C32.7322 587.228 38.0441 586.813 43.42 586.525C43.5117 581.1 43.8743 575.689 44.5079 570.293C45.4102 561.65 47.4102 553.157 50.4598 545.018C50.5818 544.707 50.767 544.424 51.0038 544.187C51.2406 543.951 51.5239 543.766 51.8358 543.644C52.4433 543.412 53.1178 543.425 53.7155 543.682C54.3132 543.938 54.7869 544.418 55.0357 545.018C58.06 553.165 60.0593 561.655 60.9876 570.293C61.6276 575.597 61.9156 580.901 62.0436 586.27C67.393 586.305 72.7357 586.657 78.0433 587.324C86.6942 588.252 95.1963 590.248 103.355 593.267C103.807 593.463 104.193 593.786 104.464 594.198C104.734 594.61 104.879 595.091 104.879 595.584C104.879 596.076 104.734 596.558 104.464 596.97C104.193 597.381 103.807 597.705 103.355 597.9L103.278 597.76Z" fill="#DB9A00"/>
<path d="M389.704 175.31C381.555 178.358 373.049 180.355 364.393 181.253C358.996 181.886 353.57 182.249 348.137 182.339C347.849 187.644 347.433 192.948 346.825 198.316C345.917 206.852 344.29 215.296 341.961 223.559C341.826 224.039 341.569 224.476 341.216 224.828C340.863 225.181 340.426 225.437 339.945 225.572C339.198 225.795 338.392 225.714 337.704 225.345C337.017 224.976 336.504 224.35 336.278 223.603V223.559C333.946 215.298 332.329 206.853 331.446 198.316C330.806 192.916 330.358 187.484 330.102 182.084C324.694 181.796 319.254 181.381 313.847 180.742C305.302 179.828 296.847 178.214 288.567 175.917C288.098 175.76 287.672 175.496 287.322 175.147C286.972 174.798 286.708 174.372 286.551 173.904C286.326 173.157 286.407 172.352 286.777 171.665C287.147 170.978 287.775 170.467 288.522 170.242H288.567C296.842 167.917 305.298 166.292 313.847 165.385C319.158 164.778 324.47 164.331 329.846 164.075C329.874 158.636 330.237 153.205 330.934 147.811C331.837 139.178 333.837 130.696 336.886 122.568C337.008 122.257 337.193 121.974 337.43 121.737C337.667 121.501 337.95 121.316 338.262 121.194C338.87 120.961 339.544 120.975 340.142 121.232C340.739 121.488 341.213 121.968 341.462 122.568C344.482 130.705 346.481 139.184 347.414 147.811C348.054 153.147 348.342 158.451 348.47 163.787C353.818 163.867 359.158 164.219 364.47 164.842C373.123 165.756 381.627 167.753 389.781 170.785C390.234 170.981 390.619 171.304 390.89 171.716C391.161 172.128 391.305 172.609 391.305 173.102C391.305 173.594 391.161 174.076 390.89 174.488C390.619 174.899 390.234 175.223 389.781 175.418L389.704 175.31Z" fill="#DB9A00"/>
<path d="M590.117 186.877C586.683 189.726 582.645 191.758 578.309 192.82C577.17 193.115 576.017 193.349 574.853 193.523C574.661 194.449 574.469 195.408 574.213 196.335C573.229 200.493 571.599 204.471 569.381 208.125C569.103 208.554 568.731 208.915 568.293 209.18C567.595 209.662 566.735 209.847 565.9 209.696C565.065 209.544 564.325 209.068 563.842 208.371C563.786 208.292 563.733 208.21 563.685 208.125C561.445 204.479 559.803 200.498 558.821 196.335C558.533 195.216 558.309 194.098 558.085 192.98C556.965 192.756 555.845 192.532 554.885 192.245C550.715 191.264 546.729 189.624 543.078 187.388C542.649 187.122 542.287 186.762 542.022 186.333C541.546 185.581 541.39 184.671 541.587 183.803C541.784 182.935 542.318 182.181 543.071 181.707C546.73 179.492 550.715 177.864 554.879 176.882C555.807 176.626 556.767 176.434 557.695 176.243C557.868 175.081 558.103 173.929 558.399 172.792C559.474 168.466 561.508 164.437 564.351 161.001L564.703 160.65C565.333 160.165 566.122 159.933 566.915 159.998C567.707 160.063 568.448 160.421 568.991 161.001C571.857 164.421 573.894 168.456 574.943 172.792C575.199 173.75 575.423 174.709 575.583 175.667C576.566 175.758 577.533 175.973 578.462 176.307C582.804 177.353 586.845 179.387 590.27 182.25C590.395 182.359 590.513 182.476 590.622 182.601C591.087 183.249 591.292 184.046 591.199 184.837C591.105 185.628 590.719 186.355 590.117 186.877Z" fill="#DB9A00"/>
<path d="M474.919 539.797C471.267 542.034 467.281 543.673 463.111 544.654C462.183 544.878 461.223 545.101 460.295 545.261C460.138 546.436 459.903 547.6 459.591 548.744C458.546 553.071 456.509 557.096 453.64 560.503L453.288 560.854C452.657 561.338 451.868 561.57 451.076 561.505C450.283 561.44 449.543 561.083 449 560.503C446.16 557.077 444.126 553.059 443.048 548.744C442.792 547.785 442.6 546.795 442.44 545.836C437.038 544.976 431.96 542.705 427.72 539.254L427.4 538.934C426.911 538.309 426.673 537.523 426.733 536.732C426.792 535.94 427.144 535.199 427.72 534.653C431.152 531.794 435.189 529.751 439.528 528.678C440.667 528.393 441.821 528.169 442.984 528.007C443.176 527.048 443.4 526.121 443.624 525.163C444.612 521.011 446.254 517.042 448.488 513.404C448.679 513.031 448.943 512.698 449.263 512.427C449.583 512.155 449.954 511.949 450.354 511.82C450.754 511.691 451.175 511.642 451.594 511.676C452.013 511.71 452.421 511.826 452.795 512.017C453.393 512.321 453.879 512.807 454.184 513.404C456.397 517.049 458.027 521.016 459.015 525.163C459.303 526.313 459.559 527.431 459.751 528.55C460.871 528.741 461.991 528.997 462.951 529.253C467.121 530.233 471.107 531.873 474.759 534.11C475.191 534.371 475.553 534.733 475.815 535.164C476.307 535.898 476.488 536.797 476.321 537.664C476.153 538.532 475.649 539.298 474.919 539.797Z" fill="#DB9A00"/>
<path d="M144.462 331.208C143.323 331.503 142.169 331.738 141.006 331.911C140.814 332.838 140.59 333.796 140.366 334.723C139.385 338.887 137.743 342.868 135.502 346.514C135.238 346.944 134.876 347.305 134.446 347.568C133.693 348.043 132.781 348.2 131.912 348.004C131.044 347.808 130.288 347.275 129.812 346.523C127.596 342.869 125.966 338.89 124.98 334.733C124.692 333.614 124.468 332.496 124.244 331.378C123.124 331.154 122.004 330.93 121.044 330.643C116.88 329.66 112.896 328.032 109.237 325.818C108.808 325.539 108.447 325.168 108.181 324.731C107.706 323.979 107.549 323.069 107.746 322.201C107.943 321.333 108.477 320.579 109.23 320.105C112.89 317.89 116.874 316.262 121.038 315.28C121.966 315.024 122.926 314.832 123.854 314.641C124.012 313.476 124.247 312.323 124.558 311.19C125.608 306.855 127.644 302.82 130.51 299.399L130.862 299.08C131.461 298.554 132.245 298.286 133.041 298.337C133.837 298.387 134.58 298.751 135.108 299.348L135.15 299.399C138.003 302.828 140.039 306.86 141.102 311.19C141.358 312.148 141.55 313.107 141.742 314.066C142.725 314.156 143.693 314.371 144.622 314.705C148.963 315.751 153.004 317.785 156.429 320.648L156.749 320.999C157.238 321.625 157.476 322.41 157.417 323.202C157.358 323.993 157.006 324.734 156.429 325.281C152.955 328.158 148.858 330.188 144.462 331.208Z" fill="#DB9A00"/>
<path d="M408.745 353.192C409.696 352.597 410.691 352.074 411.72 351.626V351.434C412.99 348.423 415.059 345.815 417.704 343.893C418.373 343.404 419.18 343.141 420.008 343.141C420.837 343.141 421.644 343.404 422.312 343.893C425.637 349.001 429.997 353.355 435.112 356.675C435.614 357.343 435.885 358.156 435.885 358.991C435.885 359.826 435.614 360.639 435.112 361.308C433.178 363.933 430.569 365.987 427.56 367.251H427.368C426.922 368.28 426.397 369.273 425.8 370.223C424.984 371.6 423.995 372.867 422.856 373.993C422.096 374.738 421.073 375.155 420.008 375.155C418.943 375.155 417.921 374.738 417.16 373.993C416.024 372.865 415.035 371.598 414.216 370.223C413.473 369.076 412.851 367.855 412.36 366.58C411.079 366.078 409.847 365.457 408.681 364.727C407.31 363.886 406.043 362.889 404.905 361.755C404.166 360.992 403.752 359.973 403.752 358.911C403.752 357.85 404.166 356.83 404.905 356.067C406.057 354.95 407.348 353.984 408.745 353.192Z" fill="#DB9A00"/>
<path d="M370.313 654.541C369.368 655.139 368.373 655.652 367.337 656.074C367.343 656.149 367.343 656.224 367.337 656.298C366.1 659.31 364.037 661.913 361.385 663.807C360.717 664.312 359.903 664.586 359.065 664.586C358.227 664.586 357.413 664.312 356.745 663.807C354.24 662.018 352.262 659.59 351.017 656.777C348.204 655.527 345.775 653.553 343.977 651.058C343.471 650.391 343.197 649.578 343.197 648.741C343.197 647.905 343.471 647.091 343.977 646.425C345.898 643.786 348.511 641.729 351.529 640.481H351.721C352.144 639.447 352.658 638.453 353.257 637.51C354.086 636.141 355.074 634.875 356.201 633.739C356.966 632.991 357.994 632.572 359.065 632.572C360.136 632.572 361.164 632.991 361.929 633.739C363.057 634.875 364.045 636.14 364.873 637.51C365.617 638.656 366.239 639.877 366.729 641.152C368.001 641.653 369.222 642.274 370.377 643.006C371.755 643.835 373.023 644.833 374.153 645.977C374.907 646.732 375.331 647.755 375.331 648.821C375.331 649.887 374.907 650.91 374.153 651.665C373.007 652.79 371.715 653.757 370.313 654.541Z" fill="#DB9A00"/>
<path d="M206.508 447.134H206.316C205.87 448.163 205.345 449.156 204.748 450.105C203.922 451.476 202.934 452.742 201.804 453.876C201.04 454.614 200.019 455.026 198.956 455.026C197.893 455.026 196.872 454.614 196.108 453.876C194.979 452.734 193.981 451.469 193.132 450.105C192.399 448.942 191.778 447.711 191.276 446.431C189.999 445.941 188.777 445.32 187.628 444.578C186.251 443.76 184.983 442.772 183.853 441.638C183.107 440.879 182.689 439.858 182.689 438.794C182.689 437.731 183.107 436.71 183.853 435.95C185.818 434.061 188.104 432.536 190.604 431.445V431.253C191.861 428.244 193.92 425.636 196.556 423.712C197.226 423.211 198.04 422.941 198.876 422.941C199.713 422.941 200.527 423.211 201.196 423.712C203.697 425.519 205.673 427.956 206.924 430.774C209.742 432.015 212.174 433.991 213.964 436.493C214.468 437.155 214.742 437.963 214.742 438.794C214.742 439.625 214.468 440.434 213.964 441.095C212.084 443.756 209.504 445.846 206.508 447.134Z" fill="#DB9A00"/>
<path d="M110.065 61.333H109.873C109.427 62.3724 108.903 63.3764 108.305 64.3366C107.479 65.7071 106.491 66.9731 105.361 68.107C104.597 68.8449 103.576 69.2575 102.513 69.2575C101.45 69.2575 100.429 68.8449 99.6652 68.107C98.5356 66.9731 97.5471 65.7071 96.7213 64.3366C95.9828 63.1758 95.3611 61.945 94.8653 60.662C92.091 59.5648 89.5582 57.9366 87.4095 55.8691C86.6705 55.1063 86.2573 54.0865 86.2573 53.0252C86.2573 51.9639 86.6705 50.9442 87.4095 50.1814C88.5481 49.0477 89.8153 48.0504 91.1854 47.2098C92.1302 46.6119 93.126 46.0987 94.1614 45.676V45.4843C95.4183 42.475 97.4768 39.867 100.113 37.9434C100.783 37.4425 101.597 37.1718 102.433 37.1718C103.27 37.1718 104.084 37.4425 104.753 37.9434C108.087 43.043 112.446 47.3953 117.553 50.7246C118.055 51.3931 118.326 52.2059 118.326 53.0412C118.326 53.8765 118.055 54.6893 117.553 55.3578C115.659 58.0029 113.067 60.0714 110.065 61.333Z" fill="#DB9A00"/>
</g>
</svg>
