<svg width="48" height="48" viewBox="0 0 48 48" fill="none" xmlns="http://www.w3.org/2000/svg">
<path d="M24.8906 47.5037C25.6156 46.6806 26.3418 45.8574 27.4144 44.6607C27.1929 40.1377 27.0358 34.9685 26.6573 29.8097C26.3727 25.8514 26.9406 25.1872 31.074 25.2867C35.3967 25.3823 39.7194 25.4766 44.0421 25.4766C44.5675 25.482 45.0878 25.3712 45.5658 25.1522C46.0439 24.9333 46.4681 24.6114 46.8084 24.2095C47.1486 23.8076 47.3966 23.3355 47.5347 22.8266C47.6729 22.3177 47.6977 21.7846 47.6076 21.265C47.2599 19.6187 46.629 19.1121 44.6099 19.1121C39.5301 19.1121 34.4824 19.1431 29.4026 19.1754C26.6882 19.2064 25.9001 18.5099 25.837 15.8503C25.7739 12.4309 25.837 8.97922 25.7083 5.55981C25.693 4.17246 25.4695 2.79534 25.0451 1.47488C24.8314 0.830024 23.8849 -0.0577805 23.3802 0.00295723C22.5446 0.250533 21.8409 0.82021 21.4229 1.58731C21.1015 2.35687 20.9716 3.19336 21.0443 4.02457C20.9503 7.63524 20.9503 11.2446 20.8872 14.854C20.9197 15.6822 20.8562 16.5114 20.6979 17.3248C20.6746 17.5542 20.606 17.7765 20.4963 17.979C20.3865 18.1815 20.2378 18.3601 20.0587 18.5044C19.8795 18.6487 19.6736 18.7558 19.4529 18.8195C19.2322 18.8832 19.001 18.9023 18.7729 18.8756C14.2661 18.8756 9.74892 18.9712 5.26913 19.0048C3.40716 19.0048 1.5143 18.9415 0.409479 20.8735C0.171153 21.2439 0.0302735 21.669 0 22.1089C0.030904 22.7731 3.21916 25.4017 3.94412 25.4017C8.80248 25.3383 13.693 25.2724 18.5527 25.1432C20.3554 25.1109 21.4551 25.8087 21.5491 27.5818C21.8066 32.5532 22.023 37.5557 22.0539 42.5594C22.0861 45.5408 22.4646 46.4596 24.8906 47.5037Z" fill="black"/>
</svg>
