            <svg
              width="11"
              height="10"
              viewBox="0 0 11 10"
              fill="none"
              xmlns="http://www.w3.org/2000/svg"
            >
              <path
                fill-rule="evenodd"
                clip-rule="evenodd"
                d="M4.5 0.5C4.5 0.367392 4.55268 0.240215 4.64645 0.146447C4.74021 0.0526785 4.86739 0 5 0H10C10.1326 0 10.2598 0.0526785 10.3536 0.146447C10.4473 0.240215 10.5 0.367392 10.5 0.5V5.5C10.5 5.63261 10.4473 5.75979 10.3536 5.85355C10.2598 5.94732 10.1326 6 10 6C9.86739 6 9.74021 5.94732 9.64645 5.85355C9.55268 5.75979 9.5 5.63261 9.5 5.5V1H5C4.86739 1 4.74021 0.947321 4.64645 0.853553C4.55268 0.759785 4.5 0.632608 4.5 0.5Z"
                fill="black"
              />
              <path
                fill-rule="evenodd"
                clip-rule="evenodd"
                d="M10.3541 0.146039C10.4007 0.192485 10.4376 0.247661 10.4629 0.308406C10.4881 0.369151 10.501 0.434272 10.501 0.500039C10.501 0.565807 10.4881 0.630928 10.4629 0.691673C10.4376 0.752418 10.4007 0.807594 10.3541 0.854039L1.35414 9.85404C1.26026 9.94793 1.13292 10.0007 1.00014 10.0007C0.867368 10.0007 0.74003 9.94793 0.646143 9.85404C0.552257 9.76015 0.499512 9.63281 0.499512 9.50004C0.499512 9.36726 0.552257 9.23993 0.646143 9.14604L9.64614 0.146039C9.69259 0.099476 9.74776 0.0625333 9.80851 0.0373268C9.86926 0.0121204 9.93438 -0.000854492 10.0001 -0.000854492C10.0659 -0.000854492 10.131 0.0121204 10.1918 0.0373268C10.2525 0.0625333 10.3077 0.099476 10.3541 0.146039Z"
                fill="black"
              />
            </svg>