<svg width="710" height="610" viewBox="0 0 710 610" fill="none" xmlns="http://www.w3.org/2000/svg">
<path d="M121.967 213.715C121.967 213.715 203.973 215.945 232.869 215.945C259.424 215.945 343.771 213.715 343.771 213.715C353.575 213.715 362.978 209.799 369.911 202.828C376.844 195.857 380.738 186.403 380.738 176.545V137.144C380.738 127.286 376.844 117.831 369.911 110.861C362.978 103.89 353.575 99.9736 343.771 99.9736C343.771 99.9736 248.087 97 229.173 97C192.636 97 121.967 99.9736 121.967 99.9736C112.163 99.9736 102.76 103.89 95.8276 110.861C88.8949 117.831 85.0002 127.286 85.0002 137.144V176.545C85.0002 186.403 88.8949 195.857 95.8276 202.828C102.76 209.799 112.163 213.715 121.967 213.715Z" fill="#FFB400"/>
<path d="M352.643 181.749C352.643 181.749 324.444 228.006 365.138 257.13C365.829 257.626 366.324 258.35 366.537 259.176C366.75 260.002 366.666 260.877 366.301 261.647C365.937 262.418 365.314 263.034 364.542 263.389C363.77 263.743 362.898 263.813 362.08 263.586C330.796 254.968 279.693 233.186 270.576 181.749H352.643Z" fill="#FFB400"/>
<path d="M396.023 295.754C396.309 291.716 396.597 287.839 396.882 284.005C397.129 280.579 397.292 277.151 397.537 273.766C397.554 273.019 397.721 272.284 398.029 271.603C402.777 261.895 410.349 254.801 419.353 249.207C424.347 246.106 429.669 243.455 434.948 240.804C436.193 240.253 437.575 240.082 438.917 240.314C440.967 240.725 442.99 241.256 444.976 241.906C450.42 243.414 452.14 245.74 452.67 251.166C452.923 252.696 452.822 254.262 452.375 255.747C451.929 257.231 451.148 258.594 450.092 259.732C442.889 267.362 440.596 277.192 437.315 286.739C435.111 293.225 435.399 299.344 435.966 305.952C436.866 316.151 441.822 324.522 446.484 333.04C449.02 337.99 450.59 343.375 451.11 348.908C452.952 362.778 450.25 376.16 448.04 389.663C447.838 390.485 447.535 391.279 447.141 392.028C446.935 392.436 446.568 392.804 446.362 393.211C439.973 406.715 428.261 415.241 417.055 424.215C416.382 424.721 415.596 425.058 414.764 425.195C407.274 426.541 399.743 427.928 392.212 429.07C390.023 429.205 387.826 429.095 385.662 428.743C373.67 427.928 361.677 427.099 349.685 426.254C348.827 426.236 347.975 426.113 347.147 425.888C338.097 422.951 329.015 419.972 320.009 416.953C316.735 415.853 312.929 410.305 312.847 406.918V406.633C312.274 400.31 311.538 393.945 321.115 392.028C316.45 388.765 312.478 386.603 309.327 383.625C306.033 380.13 303.008 376.394 300.276 372.447C299.907 371.957 300.113 370.979 300.236 370.243C300.809 366.696 301.3 363.105 302.078 359.556C302.417 358.398 303.107 357.374 304.053 356.621C307.286 353.846 310.642 351.195 313.999 348.42C311.502 343.689 309.046 339.202 306.754 334.625C306.476 333.519 306.406 332.371 306.549 331.24C306.549 331.158 306.631 331.077 306.631 330.953C308.351 323.162 313.63 318.429 320.425 315.035C322.511 313.974 322.881 312.71 322.103 310.467C320.754 306.765 320.392 302.778 321.052 298.896C321.712 295.013 323.372 291.367 325.869 288.315C326.622 287.406 327.659 286.774 328.815 286.52C333.237 285.745 337.657 285.092 342.124 284.602C343.447 284.515 344.776 284.654 346.052 285.011C361.892 288.478 377.718 291.959 393.532 295.455C394.181 295.55 394.959 295.632 396.023 295.754Z" fill="white"/>
<path d="M481.895 383.91C480.83 384.399 480.094 384.727 479.357 385.052C479.235 384.521 479.112 383.991 478.907 383.216C474.937 387.541 472.318 382.197 468.47 382.238C468.879 382.85 469.289 383.421 469.615 383.91C467.61 384.603 461.021 382.523 460.079 380.933C458.318 381.299 456.601 381.626 454.349 382.074C453.571 384.44 452.507 387.541 451.401 390.887C452.221 390.641 452.752 390.519 453.406 390.316C453.406 390.763 453.531 391.131 453.406 391.294C451.974 392.763 450.379 394.109 449.11 395.699C448.244 397.043 447.503 398.464 446.899 399.944C447.513 399.863 447.882 399.822 448.66 399.741C446.981 401.739 445.465 403.331 444.239 405.124C443.397 406.401 442.736 407.788 442.275 409.245C441.823 410.564 441.064 411.758 440.061 412.73C439.058 413.701 437.838 414.422 436.502 414.834C435.619 415.172 434.871 415.788 434.373 416.589C434.03 417.551 433.358 418.361 432.474 418.876C431.59 419.391 430.551 419.577 429.542 419.403C428.18 421.726 426.69 423.973 425.081 426.134C424.714 426.624 423.239 426.215 422.052 426.215C422.052 426.256 422.093 426.705 422.093 426.787C419.711 427.985 417.25 429.021 414.727 429.887C412.885 430.377 411.247 430.336 412.967 433.272C411.084 430.702 409.652 431.845 408.014 432.742C406.305 433.547 404.541 434.228 402.735 434.781C401.874 435.106 401.015 435.352 400.154 435.596C399.813 435.716 399.449 435.757 399.09 435.718C396.838 434.984 394.588 434.169 392.336 433.394C391.926 433.23 391.271 432.986 391.026 433.148C388.815 434.74 386.606 433.842 384.313 433.476C382.146 433.326 379.971 433.339 377.806 433.516C376.826 433.385 375.856 433.194 374.899 432.945C373.735 432.754 372.558 432.644 371.378 432.618C369.21 432.577 367.04 432.618 364.545 432.618C364.176 432.742 363.274 433.354 362.538 433.189C359.633 432.659 356.808 431.884 353.944 431.231C353.668 431.175 353.383 431.204 353.124 431.313C349.195 433.516 346.535 430.497 343.383 429.19C341.066 428.434 338.68 427.901 336.26 427.599C335.893 427.068 335.606 426.702 335.32 426.334C334.828 426.865 334.337 427.395 334.418 427.314C332.716 427.715 330.97 427.907 329.221 427.885C326.996 427.447 324.827 426.763 322.754 425.846C321.198 425.234 319.929 423.969 318.375 423.439C316.41 422.786 314.648 422.255 313.667 420.092C313.3 419.318 311.703 419.114 310.434 418.543C310.515 418.34 310.721 417.768 310.925 417.238C308.961 416.147 307.431 414.418 306.59 412.34C305.749 410.261 305.647 407.958 306.301 405.814C306.872 404.102 306.423 402.061 306.956 400.308C307.822 398.114 308.848 395.986 310.026 393.941C309.51 392.945 308.768 392.083 307.858 391.424C306.948 390.765 305.896 390.328 304.785 390.148C304.212 390.026 303.762 389.414 303.272 389.007C301.962 387.864 301.716 385.742 299.3 385.416C298.564 385.335 298.197 382.847 297.583 381.458C297.091 380.358 297.705 378.888 295.576 378.358C293.693 377.87 293.57 372.281 294.88 370.77C294.553 369.587 293.776 368.404 294.062 367.711C295.986 363.264 293.57 356.451 301.43 354.976C300.734 354.527 300.365 354.283 299.914 353.997C301.061 352.896 302.207 351.795 303.313 350.693C303.19 350.571 303.066 350.408 302.943 350.284C304.008 350.162 305.032 349.999 306.587 349.837C304.789 347.032 303.231 344.418 301.474 341.973C300.883 341.205 300.51 340.291 300.395 339.329C300.279 338.367 300.426 337.392 300.819 336.506C301.166 335.259 301.123 333.936 300.697 332.713C300.224 331.157 300.179 329.503 300.568 327.924C300.957 326.345 301.764 324.9 302.906 323.739C304.871 321.903 305.281 317.987 309.497 318.065C311.215 318.105 313.303 315.902 314.694 314.23C315.495 313.55 316.132 312.699 316.557 311.74C316.982 310.781 317.185 309.739 317.15 308.691C316.821 304.771 316.698 300.835 316.781 296.902C316.741 293.76 321.285 285.437 323.739 284.01C323.29 283.357 322.84 282.705 322.266 281.849C323.494 281.44 324.845 279.808 324.353 282.583C325.5 282.215 326.564 281.889 327.996 281.44C327.956 281.277 327.751 280.584 327.629 280.013C329.43 279.686 331.148 279.238 332.908 279.033C334.298 278.94 335.692 278.927 337.084 278.992C338.393 278.462 339.581 277.606 339.948 277.89C342.526 279.85 345.229 278.83 347.933 278.462C349.5 278.178 351.102 278.137 352.682 278.34C353.663 278.543 354.442 279.645 355.546 280.543C355.834 280.338 356.488 279.85 357.102 279.36C359.352 280.338 360.54 284.419 364.183 281.399C365.533 284.378 367.416 285.805 370.363 282.786C372.656 287.232 377.158 285.152 380.351 286.539C383.496 287.811 386.827 288.569 390.215 288.784C390.705 286.907 391.156 285.153 391.606 283.398L391.237 283.52C390.95 282.402 390.84 281.246 390.911 280.094C391.443 277.402 392.794 274.749 392.875 272.058C393.079 266.752 396.763 263.568 399.507 259.737C400.004 258.864 400.55 258.02 401.143 257.208C403.476 254.638 406.873 252.884 407.774 249.09C407.774 249.009 407.937 248.927 407.978 248.927C411.907 249.458 412.48 244.603 415.838 244.032C416.409 243.95 416.737 242.604 417.023 242.115C418.865 240.891 420.544 239.667 422.347 238.606C423.545 237.807 424.855 237.189 426.235 236.771C429.55 235.995 432.907 235.507 436.426 234.852L436.222 235.873C439.088 235.67 442.078 235.588 445.022 235.261C448.583 234.895 449.32 238.689 452.186 239.423C452.512 239.341 453.25 238.892 453.862 239.014C454.167 239.139 454.441 239.328 454.667 239.567C454.893 239.806 455.065 240.09 455.172 240.401C455.951 242.808 456.606 245.215 457.261 247.663C457.573 248.453 457.671 249.311 457.546 250.151C456.606 252.804 455.46 255.413 454.395 258.025C454.109 258.718 453.536 259.412 453.577 260.064C453.903 263.002 451.694 264.714 450.507 266.918C449.893 268.06 447.11 266.836 447.641 269.406C445.391 269.366 446.291 271.486 445.595 272.466C444.526 274.058 443.542 275.706 442.647 277.402C441.829 278.911 440.275 280.216 441.379 282.339C441.544 282.664 440.397 283.725 440.151 284.091C439.833 285.09 439.6 286.114 439.455 287.151C439.443 288.221 439.553 289.289 439.783 290.335C439.824 290.621 440.479 290.906 440.438 291.111C439.987 293.64 439.537 296.129 438.965 298.617C438.428 299.862 438.018 301.158 437.741 302.485C437.698 303.138 438.885 303.872 439.54 304.608C439.705 306.933 439.868 309.544 440.073 312.4H441.588C443.348 315.948 445.066 319.375 446.704 322.925C446.808 323.33 446.828 323.752 446.765 324.166C446.702 324.58 446.555 324.976 446.335 325.332C451.493 330.063 452.516 336.591 454.154 342.874C454.562 343.935 455.053 344.953 455.422 346.015C456.153 348.1 456.767 350.223 457.261 352.376C457.319 352.851 457.276 353.333 457.135 353.79C456.994 354.247 456.758 354.669 456.443 355.029C456.647 355.723 456.851 356.457 457.014 357.152C457.546 359.435 455.704 362.046 458.12 364.127C458.448 364.412 457.875 365.922 457.465 366.738C456.81 368.084 455.992 369.348 454.927 371.143C459.921 371.225 465.118 369.186 468.435 374.488C468.758 374.199 469.059 373.885 469.335 373.551C469.539 373.264 469.663 372.898 469.539 373.183C473.633 373.061 477.357 372.817 481.082 372.898C482.45 373.205 483.78 373.656 485.052 374.244C486.087 374.461 487.145 374.557 488.203 374.529C489.554 374.529 490.904 374.203 492.216 374.325C499.136 375.181 505.844 377.588 513.049 375.998C514.972 375.59 517.181 376.732 519.27 376.976C520.385 376.941 521.495 376.805 522.585 376.57C525.941 376.283 529.298 375.834 532.654 375.876C538.916 375.917 545.178 376.446 551.4 376.283C553.978 376.202 556.516 374.691 559.135 374.285C560.716 374.388 562.28 374.661 563.802 375.1C568.497 375.671 573.25 375.589 577.922 374.856C580.666 374.407 583.572 374.978 586.314 374.569C590.857 373.876 595.277 372.611 599.779 371.916C602.285 371.72 604.802 371.706 607.31 371.876C607.679 371.876 608.293 371.916 608.334 371.754C609.03 369.509 610.217 371.264 611.117 371.426C612.387 371.632 613.697 372.447 614.882 372.244C618.731 371.55 622.497 370.04 626.344 369.714C629.373 369.469 632.319 367.389 635.552 369.062C636.043 369.347 636.945 368.897 637.722 368.816C638.132 369.347 638.705 369.999 639.523 370.979C640.588 369.55 641.447 368.326 642.428 367.021C643.042 367.47 643.74 367.96 644.025 368.163C647.587 367.061 650.902 365.185 654.176 365.268C656.837 365.309 659.499 365.063 662.161 365.022C663.226 364.982 664.248 364.532 665.313 364.451C667.483 364.288 669.692 364.288 671.861 364.126C672.497 363.997 673.098 363.732 673.621 363.349C675.545 362.208 677.387 360.82 679.843 362.168C680.17 362.315 680.53 362.377 680.888 362.348C681.246 362.319 681.591 362.2 681.89 362.003C683.731 360.127 685.901 360.167 688.279 360.411C689.726 360.427 691.17 360.262 692.577 359.921C693.026 359.84 693.558 359.472 693.968 359.594C698.47 360.983 702.317 356.821 706.819 358.045C707.229 358.167 707.884 357.024 708.539 356.74C709.316 356.412 710.421 356.006 711.035 356.29C712.632 357.024 712.549 357.189 713 355.394C713.451 355.475 713.901 355.516 714.35 355.638C714.76 355.801 715.17 356.087 715.456 355.556C717.198 354.864 718.991 354.305 720.818 353.883C722.536 353.639 724.87 354.66 725.934 353.843C727.94 352.334 730.436 353.802 732.278 352.088C733.328 351.358 734.562 350.935 735.84 350.864C738.296 350.539 1183.32 350.216 1181.89 348.38C1178.45 343.975 1174.85 339.732 1171.37 335.367C1170.67 334.329 1170.06 333.238 1169.53 332.104C1169.16 332.388 1168.63 332.838 1167.98 333.409C1167.07 331.899 1166.21 330.309 1165.23 328.879C1164.68 328.179 1164.02 327.573 1163.27 327.086C1161.31 325.687 1159.45 324.16 1157.7 322.516C1154.43 318.968 1151.64 314.969 1148.29 311.584C1146.36 309.626 1143.62 308.484 1141.33 306.809C1140.41 306.069 1139.58 305.219 1138.87 304.279C1138.42 303.749 1138.34 302.728 1137.85 302.525C1134.04 301.138 1132.08 297.67 1129.17 295.305C1126.76 293.388 1124.59 290.613 1120.82 290.735C1119.96 290.776 1119.1 289.389 1118.16 288.737C1117.49 288.134 1116.69 287.688 1115.83 287.431C1114.35 287.228 1113.45 286.86 1113.13 285.146C1112.61 283.944 1111.89 282.84 1111 281.883C1111 281.883 1110.59 282.292 1110.51 282.21C1108.95 281.149 1107.35 280.088 1105.88 278.946C1105.39 278.579 1105.18 277.764 1104.65 277.437C1101.95 275.928 1099.21 274.54 1096.47 273.072C1095.56 272.581 1094.72 271.978 1093.97 271.277C1091.8 269.319 1089.84 267.198 1087.54 265.362C1084.47 262.874 1080.71 260.997 1078.21 258.1C1076.57 256.183 1074.69 255.734 1072.81 254.674C1071.03 253.413 1069.4 251.963 1067.94 250.35C1067.62 250.022 1067.2 249.807 1066.75 249.738C1063.11 250.554 1061.35 247.657 1059.42 245.699C1057.79 244.026 1056.39 243.741 1055.29 244.149C1051.61 241.13 1048.25 238.396 1044.81 235.623C1044.4 235.948 1043.99 236.275 1043.34 236.806C1042.6 235.46 1041.91 234.236 1041.17 233.012C1040.88 232.522 1040.6 231.91 1040.14 231.707C1037.69 230.727 1035.19 229.952 1032.74 228.891C1031.04 228.135 1029.4 227.263 1027.83 226.281C1026.68 225.587 1026.23 223.628 1024.22 224.445C1023.9 224.567 1023.12 223.833 1022.67 223.384C1021.32 221.956 1020.29 220.039 1017.8 220.283C1017.55 220.324 1017.14 219.019 1016.82 218.366C1015.44 218.684 1014 218.572 1012.69 218.047C1011.38 217.522 1010.26 216.609 1009.49 215.43C1008.96 214.613 1007.4 214.532 1006.34 214.001C1004.45 213.064 1002.61 212.084 1000.73 211.065C1000.36 210.86 1000.16 210.413 999.788 210.289C997.905 209.555 995.982 208.983 994.14 208.209C990.907 206.904 987.714 205.517 984.522 204.088C982.598 203.232 980.756 202.211 978.874 201.315C977.358 200.621 975.763 200.131 974.329 199.357C973.613 198.891 972.966 198.328 972.405 197.684C969.82 197.316 967.281 196.673 964.833 195.766C962.5 194.624 960.25 185.65 964.342 185.241C966.042 185.124 967.748 185.111 969.449 185.204C969.49 187.121 969.694 188.876 972.272 187.121C972.462 187.063 972.661 187.043 972.858 187.064C973.055 187.085 973.246 187.146 973.419 187.243C975.055 188.183 976.652 189.161 978.29 190.1C978.453 190.181 978.657 190.344 978.78 190.303C983.814 188.957 986.394 193.322 990.117 194.955C994.089 196.668 997.199 200.176 1001.91 200.422C1002.42 200.39 1002.93 200.464 1003.41 200.639C1003.9 200.814 1004.34 201.086 1004.71 201.438C1005.08 201.79 1005.38 202.214 1005.58 202.685C1005.78 203.156 1005.88 203.663 1005.88 204.175C1008.17 202.257 1009.56 203.888 1011.24 205.031C1013 206.254 1015.04 207.07 1016.93 208.172C1017.95 208.743 1018.85 209.518 1019.83 210.13C1020.24 210.374 1020.82 210.904 1021.06 210.782C1023.52 209.355 1024.5 212.128 1026.14 212.455C1028.29 212.826 1030.29 213.802 1031.91 215.269C1032.61 216.143 1033.2 217.103 1033.67 218.126C1035.43 216.942 1036.7 218.248 1038.01 219.799C1038.42 220.287 1039.4 220.287 1040.01 220.655C1043.45 222.858 1046.85 225.102 1050.2 227.386C1053.6 229.71 1056.1 233.223 1060.27 234.443C1061.21 234.73 1061.79 236.238 1062.69 237.34C1062.93 236.85 1063.18 236.401 1063.63 235.545C1065.18 238.318 1067.72 238.849 1070.3 239.705C1072.02 240.276 1072.92 242.561 1074.93 243.5C1077.29 244.69 1079.5 246.156 1081.52 247.865C1084.09 249.945 1086.51 252.23 1089.09 254.514C1089.09 254.514 1089.5 254.066 1089.37 254.188C1091.87 256.31 1094.33 258.267 1096.66 260.348C1097.72 261.326 1098.38 262.713 1099.4 263.693C1099.7 263.951 1100.04 264.149 1100.41 264.275C1100.79 264.401 1101.18 264.453 1101.57 264.427C1103.94 264.018 1107.14 266.1 1107.1 267.568C1109.06 268.792 1110.7 269.853 1112.34 270.831C1113.15 271.321 1114.14 271.524 1114.83 272.055C1116.35 273.197 1117.74 274.503 1119.25 275.686C1119.97 276.171 1120.72 276.594 1121.5 276.95C1122 277.196 1122.94 277.4 1122.94 277.684C1123.22 280.663 1125.6 280.663 1127.68 281.193C1127.77 281.234 1127.93 281.153 1127.97 281.193C1129.77 283.438 1133.42 283.479 1134.36 286.742C1134.44 287.022 1134.58 287.282 1134.77 287.501C1134.96 287.72 1135.2 287.893 1135.47 288.006C1138.82 288.537 1140.66 291.637 1143.69 292.737C1144.5 293.036 1145.17 293.616 1145.58 294.37C1147.17 297.96 1150.28 299.676 1153.39 301.673C1155.79 303.463 1157.97 305.516 1159.9 307.792C1160.27 308.199 1160.11 309.097 1160.68 309.26C1161.46 309.953 1162.23 310.647 1163.05 311.299C1163.83 311.911 1164.61 312.523 1165.35 313.135C1165.92 313.625 1166.7 314.034 1166.9 314.645C1167.76 317.541 1170.46 318.602 1172.43 320.397C1174.31 322.111 1176.03 324.069 1177.83 325.864C1179.51 327.535 1181.35 329.086 1182.86 330.882C1185.07 333.492 1187.04 336.265 1189.13 339C1189.61 339.583 1190.03 340.212 1190.39 340.876C1190.88 341.773 1191.25 342.753 1191.66 343.69C1192.15 344.792 1192.64 345.894 1193.22 347.24C1193.55 346.628 1193.79 346.179 1194.16 345.485C1196.66 349.116 753.961 351.724 752.201 355.762C751.803 356.536 751.254 357.223 750.586 357.784C749.919 358.344 749.146 358.767 748.313 359.027C745.41 359.576 742.467 359.889 739.513 359.964C739.676 360.698 739.799 361.351 739.921 361.8C736.853 362.534 733.946 363.227 730.871 364.003C730.203 364.504 729.456 364.89 728.66 365.144C727.556 365.349 726.369 365.022 725.264 365.185C723.935 365.402 722.651 365.829 721.457 366.449C718.809 366.62 716.171 366.933 713.557 367.389C711.019 367.919 708.604 369.265 706.026 369.714C703.213 370.033 700.385 370.21 697.554 370.245C696.122 370.367 694.729 370.692 693.295 370.938L691.453 371.182C690.129 371.123 688.807 371.331 687.565 371.794C686.518 372.515 685.307 372.963 684.041 373.098C682.776 373.233 681.497 373.051 680.32 372.569C679.583 372.325 678.029 370.977 678.151 373.427C678.151 373.589 677.168 373.834 676.636 373.915C672.909 374.61 669.105 375.832 665.423 375.669C663.048 375.547 661.533 377.056 659.405 377.056C657.031 377.098 654.453 378.158 652.284 377.587C648.518 376.609 645.981 379.628 642.583 379.628C639.059 379.681 635.544 379.981 632.063 380.524C629.797 380.832 627.514 380.995 625.228 381.014C620.767 381.096 616.387 382.564 611.919 383.34C610.629 383.504 609.331 383.585 608.031 383.584C607.908 382.645 607.784 381.83 607.743 381.34C605.546 382.568 603.227 383.567 600.822 384.318C598.277 384.537 595.721 384.591 593.169 384.481C592.151 384.724 591.183 385.138 590.305 385.705C589.813 385.951 589.322 386.398 588.83 386.398C584.287 386.154 579.745 385.705 575.2 385.623C572.717 385.723 570.243 385.981 567.793 386.398C567.628 386.032 567.342 385.052 567.097 385.052C566.483 385.052 565.91 385.664 565.255 385.786C564.064 385.97 562.859 386.052 561.653 386.032C560.039 385.817 558.411 385.722 556.782 385.745C554.53 386.032 552.321 386.847 550.11 387.337C545.949 388.013 541.688 387.705 537.668 386.439C536.031 385.991 533.903 384.93 531.733 387.051C530.423 388.317 527.271 388.193 525.101 387.868C522.033 387.378 518.676 388.805 515.893 386.522C515.602 386.362 515.28 386.265 514.949 386.236C514.618 386.208 514.284 386.249 513.97 386.357C513.094 386.828 512.106 387.054 511.112 387.012C510.117 386.969 509.153 386.658 508.321 386.113C506.602 385.133 503.695 386.276 501.321 386.481C501.035 386.522 500.749 386.807 500.543 386.766C498.973 386.01 497.344 385.383 495.672 384.889C493.963 384.437 492.16 384.479 490.475 385.011C485.497 387.337 485.579 387.5 481.895 383.91ZM449.233 251.002C447.227 248.88 445.753 245.984 443.87 245.696C439.86 245.084 435.48 243.779 431.551 246.674C430.731 247.286 429.381 247.083 428.275 247.286C424.797 250.714 421.564 254.548 416.209 254.507C416.331 255.487 416.453 256.669 416.453 256.669C413.384 257.159 412.484 260.3 410.275 261.729C405.852 264.583 404.667 269.601 402.005 273.6C401.844 273.824 401.771 274.1 401.801 274.374C403.233 277.841 402.129 280.86 400.287 283.798C400.116 284.14 400.086 284.536 400.204 284.9C401.964 290.365 403.356 295.994 406.958 300.64C408.433 302.517 408.104 304.312 405.977 304.475C403.714 304.636 401.444 304.273 399.345 303.414C396.808 302.314 394.515 300.925 391.61 301.334C391.277 301.345 390.946 301.281 390.641 301.146C390.336 301.012 390.066 300.812 389.85 300.559C388.662 298.845 386.984 298.805 385.184 298.477C383.015 297.869 380.916 297.035 378.922 295.989C377.488 296.357 375.114 298.071 372.658 295.255C372.046 294.562 370.612 294.48 369.547 294.194C367.624 293.704 365.659 293.255 363.736 292.765C362.606 292.702 361.49 292.482 360.421 292.112C358.334 291.297 356.368 290.154 354.281 289.459C352.477 288.979 350.645 288.611 348.796 288.357H340.81C340.109 288.302 339.412 288.207 338.722 288.073C334.793 287.827 332.333 290.886 329.267 292.478C327.655 293.438 326.339 294.821 325.461 296.475C324.732 298.226 324.237 300.064 323.988 301.942C324.419 302.465 324.802 303.025 325.132 303.615C327.18 307.86 329.022 312.264 331.272 316.383C332.992 319.524 331.723 323.236 328.161 323.318C323.741 323.399 319.443 322.911 316.416 327.071C316.292 327.235 315.759 327.111 315.596 327.276C314.128 328.585 312.823 330.064 311.708 331.682C310.07 334.495 312.281 336.781 313.387 339.147C313.795 340.003 314.327 341.554 314.778 341.513C317.356 341.349 317.766 344.449 320.304 344.697C322.064 344.86 323.619 346.819 325.379 347.838C326.341 348.731 327.072 349.843 327.507 351.08C327.942 352.316 328.068 353.64 327.876 354.936C327.058 357.058 325.214 357.465 323.292 357.709C320.128 357.932 316.983 358.369 313.878 359.016C311.514 359.617 309.371 360.876 307.697 362.645C306.345 364.196 304.75 366.439 306.182 369.092C306.469 369.622 305.815 370.6 305.978 371.294C306.457 373.284 307.087 375.235 307.861 377.13C308.146 377.824 309.499 378.191 309.621 378.842C309.671 379.269 309.813 379.681 310.037 380.048C310.261 380.415 310.562 380.73 310.92 380.97C311.278 381.21 311.684 381.371 312.109 381.44C312.535 381.509 312.971 381.486 313.387 381.372C315.269 380.883 315.718 381.943 316.62 382.841C316.949 383.271 317.335 383.656 317.766 383.984C320.671 385.452 323.622 386.838 326.566 388.229C326.881 388.339 327.219 388.368 327.547 388.312C329.349 387.984 329.799 388.269 329.718 390.024C329.43 395.123 327.343 399.612 320.313 400.305C320.091 402.238 319.651 404.14 319.003 405.975C318.183 407.73 320.107 409.035 319.944 409.238C317.897 412.135 320.231 411.115 321.581 411.401C322.809 411.645 323.832 412.707 325.019 413.195C329.521 414.99 334.106 416.704 338.076 418.212C339.152 417.903 340.275 417.793 341.391 417.887C343.847 418.784 346.058 420.335 348.554 420.987C351.83 421.732 355.153 422.25 358.501 422.537C359.851 422.701 361.283 422.293 362.674 422.415C363.657 422.496 365.255 421.15 365.54 423.394C365.54 423.557 366.236 423.761 366.523 423.679C368.12 423.23 369.718 422.66 371.27 422.171C373.549 421.529 375.973 421.628 378.191 422.455C378.862 422.614 379.547 422.71 380.237 422.742C379.992 422.171 379.705 421.599 379.623 421.437C381.465 421.599 383.513 421.762 385.559 422.006C386.484 422.135 387.383 422.411 388.221 422.823C389.408 423.354 390.472 424.495 391.619 422.66C391.823 422.333 392.888 422.333 393.542 422.455C397.678 423.206 401.938 422.869 405.902 421.477C411.701 419.86 417.006 416.832 421.341 412.666C422.21 411.71 423.269 410.946 424.451 410.421C428.953 408.667 431.45 405.036 433.824 401.202C434.503 399.878 435.418 398.689 436.525 397.693C437.215 397.156 437.789 396.485 438.211 395.721C438.633 394.956 438.895 394.115 438.981 393.246C439.173 391.894 439.652 390.597 440.387 389.444C441.121 388.29 442.094 387.306 443.24 386.557C444.713 383.66 442.463 380.721 444.878 378.315C445.123 378.071 445.205 377.215 445 377.051C442.259 374.808 444.55 372.604 444.919 370.362C445.123 369.097 445 367.749 445.082 366.444C445.121 365.524 445.245 364.609 445.451 363.712C445.984 361.916 446.637 360.162 447.375 358.082C446.31 358.204 445.859 358.245 445.164 358.326C445.614 356.695 445.982 355.309 446.351 353.88C446.392 353.636 446.31 353.146 446.147 353.105C443.528 352.166 444.264 349.801 443.977 347.925C443.353 343.408 441.881 339.048 439.638 335.074C437.837 331.933 435.546 328.751 435.911 324.711C435.952 324.427 435.503 324.101 435.338 323.733C434.069 320.755 432.801 317.736 431.532 314.759C431.162 314.601 430.833 314.361 430.571 314.057C430.309 313.753 430.119 313.393 430.018 313.005C429.855 312.352 430.1 311.617 429.977 310.923C429.526 308.27 428.953 305.58 428.545 302.929C428.503 302.643 428.994 302.317 429.404 301.827C429.486 302.724 429.526 303.336 429.608 304.316C431.491 301.827 431.164 300.725 428.953 300.276C429.241 295.299 432.556 290.853 431.45 285.632C431.481 284.887 431.722 284.166 432.146 283.552C433.047 281.838 434.194 280.206 434.971 278.41C435.462 277.31 435.297 275.881 435.83 274.779C437.508 271.232 439.269 267.682 441.192 264.256C442.461 262.012 444.138 259.972 445.817 257.606C444.935 255.367 446.654 250.799 449.233 251.002Z" fill="black"/>
</svg>
